<?xml version="1.0" encoding="UTF-8" standalone="no"?>
<!-- Generator: Adobe Illustrator 16.0.0, SVG Export Plug-In . SVG Version: 6.00 Build 0)  -->

<svg
   xmlns:dc="http://purl.org/dc/elements/1.1/"
   xmlns:cc="http://creativecommons.org/ns#"
   xmlns:rdf="http://www.w3.org/1999/02/22-rdf-syntax-ns#"
   xmlns:svg="http://www.w3.org/2000/svg"
   xmlns="http://www.w3.org/2000/svg"
   xmlns:sodipodi="http://sodipodi.sourceforge.net/DTD/sodipodi-0.dtd"
   xmlns:inkscape="http://www.inkscape.org/namespaces/inkscape"
   version="1.1"
   id="Capa_1"
   x="0px"
   y="0px"
   width="16"
   height="16"
   viewBox="0 0 1.8979375 1.8979062"
   xml:space="preserve"
   inkscape:version="0.91 r13725"
   sodipodi:docname="icon-facebook.svg"><metadata
     id="metadata4347"><rdf:RDF><cc:Work
         rdf:about=""><dc:format>image/svg+xml</dc:format><dc:type
           rdf:resource="http://purl.org/dc/dcmitype/StillImage" /><dc:title></dc:title></cc:Work></rdf:RDF></metadata><defs
     id="defs4345" /><sodipodi:namedview
     pagecolor="#ffffff"
     bordercolor="#666666"
     borderopacity="1"
     objecttolerance="10"
     gridtolerance="10"
     guidetolerance="10"
     inkscape:pageopacity="0"
     inkscape:pageshadow="2"
     inkscape:window-width="1895"
     inkscape:window-height="1056"
     id="namedview4343"
     showgrid="false"
     inkscape:zoom="0.921875"
     inkscape:cx="355.1494"
     inkscape:cy="260.53938"
     inkscape:window-x="0"
     inkscape:window-y="0"
     inkscape:window-maximized="1"
     inkscape:current-layer="Capa_1" /><g
     id="g4309"
     transform="matrix(0.03125103,0,0,0.03125103,0,-5.3230486e-4)"><path
       d="m 57.378,0.001 -54.026,0 C 1.502,0.001 0,1.5 0,3.353 l 0,54.026 c 0,1.853 1.502,3.354 3.352,3.354 l 29.086,0 0,-23.519 -7.914,0 0,-9.167 7.914,0 0,-6.76 c 0,-7.843 4.789,-12.116 11.787,-12.116 3.355,0 6.232,0.251 7.071,0.36 l 0,8.198 -4.854,0.002 c -3.805,0 -4.539,1.809 -4.539,4.462 l 0,5.851 9.078,0 -1.187,9.166 -7.892,0 0,23.52 15.475,0 c 1.852,0 3.355,-1.503 3.355,-3.351 l 0,-54.028 C 60.731,1.5 59.23,0.001 57.378,0.001 Z"
       id="path4311"
       inkscape:connector-curvature="0"
       style="fill:#828282" /></g><g
     id="g4313"
     transform="translate(0,-58.836065)" /><g
     id="g4315"
     transform="translate(0,-58.836065)" /><g
     id="g4317"
     transform="translate(0,-58.836065)" /><g
     id="g4319"
     transform="translate(0,-58.836065)" /><g
     id="g4321"
     transform="translate(0,-58.836065)" /><g
     id="g4323"
     transform="translate(0,-58.836065)" /><g
     id="g4325"
     transform="translate(0,-58.836065)" /><g
     id="g4327"
     transform="translate(0,-58.836065)" /><g
     id="g4329"
     transform="translate(0,-58.836065)" /><g
     id="g4331"
     transform="translate(0,-58.836065)" /><g
     id="g4333"
     transform="translate(0,-58.836065)" /><g
     id="g4335"
     transform="translate(0,-58.836065)" /><g
     id="g4337"
     transform="translate(0,-58.836065)" /><g
     id="g4339"
     transform="translate(0,-58.836065)" /><g
     id="g4341"
     transform="translate(0,-58.836065)" /></svg>